<?xml version="1.0" encoding="UTF-8"?> <svg xmlns="http://www.w3.org/2000/svg" width="172" height="76" viewBox="0 0 172 76" fill="none"><rect width="172" height="76" fill="white"></rect><path d="M22.3666 47.6616L15.364 38.5251H13.1451V47.6616H10V27.2787H13.1451V35.8877H14.1731L22.0511 27.2787H25.8883L17.5523 36.4052L26.2038 47.6616H22.3666Z" fill="black"></path><path d="M33.4228 48C32.4321 48 31.5364 47.8209 30.7357 47.4626C29.935 47.0976 29.3006 46.5701 28.8324 45.8801C28.371 45.19 28.1403 44.3441 28.1403 43.3422C28.1403 42.4796 28.3099 41.7697 28.6492 41.2123C28.9884 40.655 29.4465 40.2137 30.0232 39.8886C30.6 39.5635 31.2446 39.318 31.9571 39.1521C32.6696 38.9863 33.3956 38.8602 34.1353 38.7739C35.0717 38.6678 35.8316 38.5815 36.4152 38.5152C36.9988 38.4422 37.4229 38.3261 37.6875 38.1668C37.9521 38.0076 38.0844 37.7488 38.0844 37.3905V37.3209C38.0844 36.4517 37.8334 35.7782 37.3312 35.3005C36.8359 34.8227 36.0963 34.5839 35.1124 34.5839C34.0878 34.5839 33.2803 34.8062 32.6899 35.2507C32.1064 35.6886 31.7027 36.1763 31.4787 36.7137L28.6186 36.0768C28.9579 35.1479 29.4533 34.3981 30.1047 33.8275C30.7629 33.2502 31.5194 32.8322 32.3744 32.5735C33.2294 32.3081 34.1285 32.1754 35.0717 32.1754C35.6959 32.1754 36.3575 32.2483 37.0564 32.3943C37.7621 32.5336 38.4203 32.7924 39.031 33.1706C39.6485 33.5488 40.154 34.0896 40.5476 34.7929C40.9411 35.4896 41.1379 36.3953 41.1379 37.51V47.6616H38.1659V45.5716H38.0437C37.8469 45.9564 37.5518 46.3346 37.1582 46.7062C36.7647 47.0777 36.2591 47.3863 35.6417 47.6318C35.0242 47.8773 34.2845 48 33.4228 48ZM34.0844 45.6114C34.9258 45.6114 35.645 45.4488 36.2422 45.1237C36.8461 44.7986 37.3041 44.3739 37.6162 43.8498C37.9352 43.319 38.0946 42.7517 38.0946 42.1479V40.1773C37.986 40.2834 37.7757 40.3829 37.4636 40.4758C37.1582 40.5621 36.8088 40.6384 36.4152 40.7047C36.0216 40.7645 35.6383 40.8209 35.2651 40.8739C34.8918 40.9204 34.5797 40.9602 34.3287 40.9934C33.7383 41.0664 33.1989 41.1891 32.7103 41.3616C32.2285 41.5341 31.8418 41.7829 31.55 42.1081C31.265 42.4265 31.1225 42.8512 31.1225 43.382C31.1225 44.1185 31.4007 44.6758 31.9571 45.054C32.5135 45.4256 33.2226 45.6114 34.0844 45.6114Z" fill="black"></path><path d="M44.2652 43.6209H47.3798C47.4205 44.2446 47.7089 44.7256 48.2449 45.064C48.7878 45.4024 49.4901 45.5716 50.3518 45.5716C51.2272 45.5716 51.9736 45.3891 52.591 45.0242C53.2085 44.6526 53.5173 44.0787 53.5173 43.3024C53.5173 42.8379 53.3985 42.4332 53.161 42.0882C52.9303 41.7365 52.6012 41.4645 52.1737 41.272C51.753 41.0796 51.2543 40.9834 50.6775 40.9834H48.133V38.6445H50.6775C51.5393 38.6445 52.1839 38.4521 52.6114 38.0673C53.0389 37.6825 53.2526 37.2014 53.2526 36.6242C53.2526 36.0005 53.0219 35.4995 52.5605 35.1213C52.1059 34.7365 51.4714 34.5441 50.6572 34.5441C49.8293 34.5441 49.1406 34.7265 48.591 35.0915C48.0413 35.4498 47.753 35.9142 47.7258 36.4848H44.652C44.6723 35.6289 44.937 34.8791 45.4459 34.2355C45.9616 33.5853 46.6537 33.081 47.5223 32.7227C48.3976 32.3578 49.3917 32.1754 50.5045 32.1754C51.6648 32.1754 52.6691 32.3578 53.5173 32.7227C54.3655 33.0877 55.0203 33.5919 55.4817 34.2355C55.9499 34.8791 56.184 35.619 56.184 36.455C56.184 37.2976 55.9261 37.9877 55.4104 38.5251C54.9015 39.0559 54.2365 39.4374 53.4155 39.6697V39.8289C54.0194 39.8687 54.5555 40.0479 55.0237 40.3664C55.4919 40.6848 55.8583 41.1062 56.1229 41.6303C56.3875 42.1545 56.5199 42.7483 56.5199 43.4118C56.5199 44.3474 56.2552 45.1569 55.726 45.8403C55.2035 46.5237 54.4774 47.0512 53.5478 47.4227C52.625 47.7877 51.5698 47.9701 50.3824 47.9701C49.2288 47.9701 48.194 47.7943 47.278 47.4427C46.3687 47.0844 45.6461 46.5801 45.11 45.9299C44.5807 45.2796 44.2991 44.51 44.2652 43.6209Z" fill="black"></path><path d="M59.9067 47.6616V27.2787H63.0518V36.1365H73.4438V27.2787H76.5991V47.6616H73.4438V38.7739H63.0518V47.6616H59.9067Z" fill="black"></path><path d="M81.1793 27.2787H84.2939V42.2474H84.4873L95.093 27.2787H98.004V47.6616H94.8589V32.7128H94.6655L84.0801 47.6616H81.1793V27.2787Z" fill="black"></path><path d="M102.592 27.2787H105.706V42.2474H105.9L116.506 27.2787H119.417V47.6616H116.271V32.7128H116.078L105.493 47.6616H102.592V27.2787Z" fill="black"></path><path d="M141.318 33.9071H138.142C138.02 33.2436 137.793 32.6597 137.46 32.1555C137.128 31.6512 136.721 31.2232 136.239 30.8716C135.757 30.5199 135.218 30.2545 134.62 30.0754C134.03 29.8962 133.402 29.8066 132.737 29.8066C131.536 29.8066 130.461 30.1019 129.511 30.6924C128.568 31.2829 127.821 32.1488 127.272 33.29C126.729 34.4313 126.457 35.8246 126.457 37.4701C126.457 39.1289 126.729 40.5289 127.272 41.6701C127.821 42.8114 128.571 43.6739 129.521 44.2578C130.471 44.8417 131.54 45.1336 132.727 45.1336C133.385 45.1336 134.01 45.0474 134.6 44.8749C135.197 44.6957 135.737 44.4337 136.218 44.0886C136.7 43.7436 137.107 43.3223 137.44 42.8246C137.779 42.3204 138.013 41.7431 138.142 41.0929L141.318 41.1028C141.148 42.1047 140.819 43.027 140.33 43.8697C139.849 44.7057 139.228 45.4289 138.468 46.0393C137.715 46.6431 136.853 47.1109 135.883 47.4427C134.912 47.7744 133.854 47.9403 132.707 47.9403C130.902 47.9403 129.294 47.5223 127.882 46.6863C126.471 45.8436 125.358 44.6393 124.544 43.0735C123.736 41.5076 123.333 39.6398 123.333 37.4701C123.333 35.2938 123.74 33.4261 124.554 31.8668C125.368 30.3009 126.481 29.1 127.893 28.264C129.304 27.4213 130.909 27 132.707 27C133.813 27 134.844 27.1559 135.801 27.4678C136.765 27.773 137.63 28.2242 138.397 28.8213C139.163 29.4118 139.798 30.1351 140.3 30.991C140.802 31.8403 141.141 32.8123 141.318 33.9071Z" fill="black"></path><path d="M146.702 47.6616H143.364L150.865 27.2787H154.499L162 47.6616H158.662L152.768 30.981H152.605L146.702 47.6616ZM147.262 39.6796H158.092V42.2673H147.262V39.6796Z" fill="black"></path></svg> 