<?xml version="1.0" encoding="UTF-8"?> <svg xmlns="http://www.w3.org/2000/svg" width="1066" height="169" viewBox="0 0 1066 169" fill="none"><g opacity="0.1"><path d="M95.0313 47.4034C94.2841 40.3985 91.1351 34.9443 85.5842 31.0408C80.0868 27.1373 72.9347 25.1856 64.1281 25.1856C57.9368 25.1856 52.6262 26.1213 48.1962 27.9929C43.7662 29.8644 40.377 32.4044 38.0285 35.6127C35.6801 38.8211 34.4792 42.484 34.4258 46.6013C34.4258 50.0236 35.1998 52.9913 36.7476 55.5045C38.3488 58.0177 40.5104 60.1566 43.2324 61.9212C45.9545 63.6323 48.9701 65.0761 52.2792 66.2525C55.5884 67.4289 58.9242 68.4181 62.2867 69.2202L77.6583 73.0702C83.8496 74.514 89.8007 76.4658 95.5117 78.9255C101.276 81.3852 106.427 84.4866 110.963 88.2297C115.553 91.9728 119.183 96.4912 121.851 101.785C124.52 107.079 125.854 113.282 125.854 120.393C125.854 130.019 123.399 138.494 118.489 145.82C113.579 153.092 106.48 158.787 97.1929 162.904C87.9593 166.968 76.7776 169 63.6478 169C50.8915 169 39.8165 167.022 30.4228 163.065C21.0825 159.108 13.7703 153.333 8.48637 145.739C3.25578 138.146 0.426987 128.896 0 117.987H29.2219C29.6489 123.709 31.4102 128.468 34.5059 132.264C37.6016 136.061 41.6312 138.895 46.595 140.766C51.6121 142.638 57.2163 143.574 63.4076 143.574C69.8658 143.574 75.5233 142.611 80.3803 140.686C85.2907 138.708 89.1336 135.981 91.909 132.505C94.6844 128.976 96.0988 124.858 96.1522 120.153C96.0988 115.875 94.8445 112.346 92.3893 109.565C89.9342 106.731 86.4916 104.378 82.0616 102.507C77.685 100.582 72.5611 98.8708 66.69 97.3735L48.0361 92.561C34.5326 89.0853 23.8579 83.8182 16.012 76.7599C8.2195 69.648 4.32325 60.2101 4.32325 48.4461C4.32325 38.7676 6.93854 30.2922 12.1691 23.0199C17.4531 15.7477 24.6318 10.1063 33.7053 6.09587C42.7788 2.03196 53.0531 0 64.5284 0C76.1638 0 86.3581 2.03196 95.1114 6.09587C103.918 10.1063 110.83 15.6942 115.847 22.8595C120.864 29.9714 123.453 38.1527 123.613 47.4034H95.0313Z" fill="white"></path><path d="M145.129 27.1908V2.24585H275.947V27.1908H225.269V166.514H195.807V27.1908H145.129Z" fill="white"></path><path d="M301.166 166.514V2.24585H362.652C375.248 2.24585 385.816 4.43822 394.356 8.82297C402.949 13.2077 409.434 19.3571 413.811 27.271C418.241 35.1315 420.456 44.302 420.456 54.7826C420.456 65.3167 418.214 74.4605 413.73 82.2141C409.301 89.9141 402.762 95.8763 394.116 100.101C385.469 104.271 374.848 106.357 362.252 106.357H318.459V81.6526H358.249C365.614 81.6526 371.646 80.6366 376.342 78.6047C381.039 76.5192 384.509 73.498 386.75 69.5411C389.045 65.5306 390.193 60.6111 390.193 54.7826C390.193 48.9541 389.045 43.9812 386.75 39.8638C384.455 35.6929 380.959 32.538 376.262 30.3991C371.565 28.2068 365.508 27.1106 358.089 27.1106H330.868V166.514H301.166ZM385.87 92.0797L426.46 166.514H393.315L353.445 92.0797H385.87Z" fill="white"></path><path d="M594.306 84.3797C594.306 102.079 590.997 117.239 584.379 129.858C577.814 142.424 568.847 152.049 557.478 158.733C546.163 165.417 533.327 168.759 518.969 168.759C504.612 168.759 491.749 165.417 480.38 158.733C469.065 151.996 460.099 142.344 453.48 129.778C446.915 117.158 443.633 102.026 443.633 84.3797C443.633 66.6803 446.915 51.5475 453.48 38.9815C460.099 26.362 469.065 16.7102 480.38 10.0261C491.749 3.34203 504.612 0 518.969 0C533.327 0 546.163 3.34203 557.478 10.0261C568.847 16.7102 577.814 26.362 584.379 38.9815C590.997 51.5475 594.306 66.6803 594.306 84.3797ZM564.444 84.3797C564.444 71.9206 562.495 61.4132 558.599 52.8576C554.756 44.2485 549.419 37.7516 542.587 33.3669C535.755 28.9287 527.883 26.7095 518.969 26.7095C510.056 26.7095 502.184 28.9287 495.352 33.3669C488.52 37.7516 483.156 44.2485 479.26 52.8576C475.417 61.4132 473.495 71.9206 473.495 84.3797C473.495 96.8388 475.417 107.373 479.26 115.982C483.156 124.538 488.52 131.035 495.352 135.473C502.184 139.857 510.056 142.05 518.969 142.05C527.883 142.05 535.755 139.857 542.587 135.473C549.419 131.035 554.756 124.538 558.599 115.982C562.495 107.373 564.444 96.8388 564.444 84.3797Z" fill="white"></path><path d="M601.932 2.24585H635.477L675.587 74.915H677.188L717.298 2.24585H750.844L691.199 105.234V166.514H661.576V105.234L601.932 2.24585Z" fill="white"></path><path d="M771.879 166.514V2.24585H801.582V77.7224H803.583L867.551 2.24585H903.818L840.411 75.9578L904.379 166.514H868.672L819.755 96.0902L801.582 117.586V166.514H771.879Z" fill="white"></path><path d="M945.51 166.514H913.806L971.529 2.24585H1008.2L1066 166.514H1034.3L990.503 35.9336H989.222L945.51 166.514ZM946.55 102.106H1033.02V126.008H946.55V102.106Z" fill="white"></path></g></svg> 